<svg xmlns="http://www.w3.org/2000/svg" xmlns:xlink="http://www.w3.org/1999/xlink" width="1920" height="1691" viewBox="0 0 1920 1691">
  <defs>
    <clipPath id="clip-path-pvp">
      <rect id="Rectangle_428" data-name="Rectangle 428" width="1920" height="1691" transform="translate(0 12669)" fill="rgba(255,255,255,0.5)" stroke="#707070" stroke-width="1"/>
    </clipPath>
    <pattern id="pattern-pvp" width="1" height="1" patternTransform="matrix(-1, 0, 0, 1, 3882.628, 0)" viewBox="0 0 1941.314 700.975">
      <use preserveAspectRatio="none" xlink:href="#image"/>
    </pattern>
    <pattern id="pattern-pvp-2" preserveAspectRatio="xMidYMid slice" width="100%" height="100%" viewBox="0 0 1922 1082">
      <image width="1922" height="1082" xlink:href="../bg/Image%2031.png"/>
    </pattern>
    <linearGradient id="linear-gradient-pvp" x1="0.5" x2="0.5" y2="1" gradientUnits="objectBoundingBox">
      <stop offset="0" stop-color="#0c3a4b" stop-opacity="0"/>
      <stop offset="0.227" stop-color="#0d4965"/>
      <stop offset="0.512" stop-color="#1074b1"/>
      <stop offset="0.749" stop-color="#1290e1"/>
      <stop offset="0.916" stop-color="#139bf5" stop-opacity="0.973"/>
      <stop offset="1" stop-color="#13a1ff" stop-opacity="0.827"/>
    </linearGradient>
    <pattern id="pattern-pvp-3" width="1" height="1" patternTransform="matrix(-1, 0, 0, 1, 3845.125, 0)" viewBox="0 0 1922.562 865.153">
      <use preserveAspectRatio="none" xlink:href="#image-2"/>
    </pattern>
    <pattern id="pattern-pvp-4" preserveAspectRatio="xMidYMid slice" width="100%" height="100%" viewBox="0 0 3200 1440">
      <image width="3200" height="1440" xlink:href="/public/assets/svg-pvp/Mask%20Group%201-image5.png"/>
    </pattern>
    <pattern id="pattern-pvp-5" preserveAspectRatio="xMidYMid slice" width="100%" height="100%" viewBox="0 0 3200 1440">
      <image width="3200" height="1440" xlink:href="/public/assets/svg-pvp/Mask%20Group%201-image6.png"/>
    </pattern>
    <image id="image-pvp" preserveAspectRatio="none" width="1941.314" height="700.975" xlink:href="/public/assets/svg-pvp/Mask%20Group%201-image2.png"/>
    <image id="image-pvp-2" preserveAspectRatio="none" width="1922.562" height="865.153" xlink:href="/public/assets/svg-pvp/Mask%20Group%201-image3.png"/>
  </defs>
  <g id="Mask_Group_1" data-name="Mask Group 1" transform="translate(0 -12669)" clip-path="url(#clip-path-pvp)">
    <g id="Group_1719" data-name="Group 1719" transform="translate(-818.798)">
      <image id="Screen_Shot_2021-12-12_at_01.01.15" data-name="Screen Shot 2021-12-12 at 01.01.15" width="2244.471" height="1259.093" transform="translate(687.279 11638.319)" xlink:href="/public/assets/svg-pvp/Mask%20Group%201-image.png"/>
      <rect id="Image_37" data-name="Image 37" width="1941.314" height="700.975" transform="translate(820.546 12661.875)" fill="url(#pattern-pvp)"/>
      <use id="Image_38" data-name="Image 38" transform="translate(730.426 12685.66) scale(1.036 1.036)" xlink:href="#image-pvp"/>
      <g id="Group_1699" data-name="Group 1699" transform="translate(-293.376 12431.317)">
        <rect id="Image_31" data-name="Image 31" width="1924.064" height="1083.853" transform="translate(1113.148 847.227)" fill="url(#pattern-pvp-2)"/>
        <rect id="Rectangle_427" data-name="Rectangle 427" width="1922.562" height="404.038" transform="translate(1113.148 464.217)" fill="url(#linear-gradient-pvp)"/>
        <rect id="clouds_1" data-name="clouds 1" width="1922.562" height="865.153" transform="translate(1856.639 207.375)" opacity="0.347" fill="url(#pattern-pvp-3)"/>
        <image id="clouds_1-2" data-name="clouds 1" width="1874.498" height="843.524" transform="translate(1182.24 249.893)" opacity="0.874" xlink:href="/public/assets/svg-pvp/Mask%20Group%201-image4.png"/>
        <use id="clouds_1-3" data-name="clouds 1" transform="matrix(1.089, -0.192, 0.192, 1.089, 0, 369.205)" opacity="0.528" xlink:href="#image-pvp-2"/>
        <rect id="clouds_1-4" data-name="clouds 1" width="1364.884" height="614.198" transform="translate(501.929 361.619) rotate(7)" fill="url(#pattern-pvp-4)"/>
        <rect id="clouds_1-5" data-name="clouds 1" width="1930.955" height="868.93" transform="translate(1264.104 266.601) rotate(7)" fill="url(#pattern-pvp-5)"/>
        <use id="clouds_1-6" data-name="clouds 1" transform="translate(2419.889 307.994) rotate(-3)" xlink:href="#image-pvp-2"/>
      </g>
      <g id="Group_1709" data-name="Group 1709" transform="translate(2233.156 14753.168)">
        <g id="Group_1090" data-name="Group 1090" transform="translate(120.998)">
          <circle id="Ellipse_23" data-name="Ellipse 23" cx="4.622" cy="4.622" r="4.622" transform="translate(17.401 17.403)" fill="#727272"/>
          <path id="Path_2039" data-name="Path 2039" d="M306.095,629.614a4.586,4.586,0,0,0-2.63-2.63,7.691,7.691,0,0,0-2.576-.479c-1.463-.066-1.9-.081-5.6-.081s-4.141.014-5.6.081a7.676,7.676,0,0,0-2.576.479,4.6,4.6,0,0,0-2.633,2.63,7.687,7.687,0,0,0-.477,2.575c-.066,1.463-.081,1.9-.081,5.6s.014,4.141.081,5.6a7.689,7.689,0,0,0,.477,2.576,4.611,4.611,0,0,0,2.633,2.632,7.688,7.688,0,0,0,2.576.477c1.461.066,1.9.081,5.6.081s4.141-.014,5.6-.081a7.7,7.7,0,0,0,2.576-.477,4.6,4.6,0,0,0,2.63-2.632,7.69,7.69,0,0,0,.477-2.576c.069-1.461.083-1.9.083-5.6s-.014-4.141-.083-5.6A7.688,7.688,0,0,0,306.095,629.614Zm-10.81,15.3a7.121,7.121,0,1,1,7.122-7.12A7.12,7.12,0,0,1,295.284,644.913Zm7.4-12.859a1.664,1.664,0,1,1,1.665-1.663A1.663,1.663,0,0,1,302.686,632.054Z" transform="translate(-273.261 -615.768)" fill="#727272"/>
          <path id="Path_2040" data-name="Path 2040" d="M301.447,621.931a22.025,22.025,0,1,0,22.023,22.026A22.025,22.025,0,0,0,301.447,621.931Zm13.784,27.741a10.19,10.19,0,0,1-.645,3.368,7.095,7.095,0,0,1-4.056,4.055,10.2,10.2,0,0,1-3.365.643c-1.48.069-1.952.085-5.718.085s-4.238-.017-5.716-.085a10.2,10.2,0,0,1-3.368-.643,7.113,7.113,0,0,1-4.056-4.055,10.253,10.253,0,0,1-.645-3.368c-.066-1.477-.083-1.949-.083-5.716s.017-4.238.083-5.718a10.247,10.247,0,0,1,.645-3.365,7.1,7.1,0,0,1,4.056-4.056,10.133,10.133,0,0,1,3.368-.645c1.478-.067,1.95-.083,5.716-.083s4.238.017,5.718.083a10.13,10.13,0,0,1,3.365.645,7.078,7.078,0,0,1,4.056,4.056,10.184,10.184,0,0,1,.645,3.365c.066,1.48.083,1.952.083,5.718S315.3,648.195,315.231,649.672Z" transform="translate(-279.424 -621.931)" fill="#727272"/>
        </g>
        <path id="Path_2041" data-name="Path 2041" d="M275.938,621.931a22.025,22.025,0,1,0,22.023,22.026A22.026,22.026,0,0,0,275.938,621.931Zm12.174,17.313c.009.251.017.5.017.756,0,7.727-5.884,16.64-16.64,16.64a16.541,16.541,0,0,1-8.965-2.628,11.836,11.836,0,0,0,8.659-2.421,5.854,5.854,0,0,1-5.464-4.063,5.8,5.8,0,0,0,1.1.107,5.9,5.9,0,0,0,1.542-.206,5.852,5.852,0,0,1-4.694-5.732l0-.076a5.814,5.814,0,0,0,2.649.733,5.854,5.854,0,0,1-1.81-7.808,16.6,16.6,0,0,0,12.053,6.11,5.852,5.852,0,0,1,9.966-5.334,11.724,11.724,0,0,0,3.714-1.418,5.878,5.878,0,0,1-2.571,3.235,11.74,11.74,0,0,0,3.358-.921A11.915,11.915,0,0,1,288.112,639.244Z" transform="translate(-193.416 -621.931)" fill="#727272" fill-rule="evenodd"/>
        <g id="Group_1091" data-name="Group 1091" transform="translate(302.495)">
          <path id="Path_2042" data-name="Path 2042" d="M364,638.17l7.629-4.4L364,629.36Z" transform="translate(-344.912 -611.74)" fill="#727272"/>
          <path id="Path_2043" data-name="Path 2043" d="M377.974,621.931A22.025,22.025,0,1,0,400,643.957,22.025,22.025,0,0,0,377.974,621.931Zm14.069,29.093a3.68,3.68,0,0,1-2.595,2.6c-2.291.612-11.474.612-11.474.612s-9.183,0-11.472-.612a3.683,3.683,0,0,1-2.6-2.6,41.126,41.126,0,0,1,0-14.135,3.679,3.679,0,0,1,2.6-2.6c2.289-.614,11.472-.614,11.472-.614s9.183,0,11.474.614a3.675,3.675,0,0,1,2.595,2.6,40.969,40.969,0,0,1,0,14.135Z" transform="translate(-355.951 -621.931)" fill="#727272"/>
        </g>
        <path id="Path_2044" data-name="Path 2044" d="M403.483,621.931a22.025,22.025,0,1,0,22.026,22.026A22.025,22.025,0,0,0,403.483,621.931Zm-7.269,34.059c-1.565-.019-3.133-.014-4.7,0-.251,0-.327-.062-.327-.32q.011-8.378,0-16.751c0-.23.057-.313.3-.311,1.591.01,3.18.012,4.769,0,.306,0,.346.116.346.377q-.011,4.169,0,8.341c0,2.756,0,5.514.007,8.272C396.608,655.9,396.532,655.993,396.214,655.99ZM393.9,636.216a3.128,3.128,0,1,1,3.131-3.143A3.151,3.151,0,0,1,393.9,636.216Zm22.972,19.414c0,.287-.081.36-.361.358q-2.351-.018-4.7,0c-.275,0-.334-.083-.334-.344q.014-4.34,0-8.683a7.879,7.879,0,0,0-.251-2.156,2.426,2.426,0,0,0-2.666-1.89,2.914,2.914,0,0,0-3.064,2.908,10.829,10.829,0,0,0-.083,1.359c0,2.815,0,5.631.009,8.446,0,.28-.071.363-.358.36q-2.366-.021-4.736,0c-.251,0-.325-.066-.325-.323q.011-8.36,0-16.723c0-.275.09-.339.351-.337,1.5.01,3,.012,4.5,0,.277,0,.349.088.342.349-.014.667,0,1.333,0,2,.361-.408.659-.821,1.032-1.169a5.652,5.652,0,0,1,4.07-1.606,9.394,9.394,0,0,1,2.559.311,5,5,0,0,1,3.553,3.735,15.7,15.7,0,0,1,.472,4.281C416.881,649.547,416.867,652.59,416.874,655.63Z" transform="translate(-18.466 -621.931)" fill="#727272"/>
        <path id="Path_2045" data-name="Path 2045" d="M250.429,621.931a22.026,22.026,0,0,0-3.441,43.781v-15.39H241.4v-6.366h5.592V639.1c0-5.521,3.29-8.569,8.32-8.569a33.905,33.905,0,0,1,4.928.429v5.422h-2.777c-2.735,0-3.588,1.7-3.588,3.439v4.131h6.109L259,650.322h-5.132v15.39a22.026,22.026,0,0,0-3.441-43.781Z" transform="translate(-228.406 -621.931)" fill="#727272"/>
        <g id="Group_1092" data-name="Group 1092" transform="translate(181.497)">
          <path id="Path_2046" data-name="Path 2046" d="M314.333,630.374a2.161,2.161,0,0,0-2.4.674,3.032,3.032,0,0,0,.009,3.935,2.261,2.261,0,0,0,3.377.043,2.822,2.822,0,0,0,.764-2.075,3.247,3.247,0,0,0-.019-.375A2.522,2.522,0,0,0,314.333,630.374Z" transform="translate(-296.316 -610.521)" fill="#727272"/>
          <path id="Path_2047" data-name="Path 2047" d="M318.871,630.645a2.244,2.244,0,0,0-2.86.27,2.79,2.79,0,0,0-.835,2.094c0,.107-.007.211,0,.318a2.538,2.538,0,0,0,2.673,2.412,2.51,2.51,0,0,0,2.116-2.009A2.891,2.891,0,0,0,318.871,630.645Z" transform="translate(-290.888 -610.516)" fill="#727272"/>
          <path id="Path_2048" data-name="Path 2048" d="M326.956,621.931a22.025,22.025,0,1,0,22.023,22.026A22.025,22.025,0,0,0,326.956,621.931Zm14.2,27.08a7.236,7.236,0,0,1-.095,1.157,1.061,1.061,0,0,1-.346.6,22.077,22.077,0,0,1-6.579,3.325.637.637,0,0,1-.569-.171c-.441-.638-.83-1.312-1.238-1.971-.2-.316,0-.429.254-.543.626-.28,1.245-.574,1.9-.88-.261-.41-.512-.358-.823-.223a16.6,16.6,0,0,1-6.361,1.413,17.318,17.318,0,0,1-7.108-1.409,2,2,0,0,0-.726-.012l-.05.223c.593.282,1.172.593,1.781.835.436.173.543.368.273.773-.38.574-.731,1.167-1.091,1.75a.5.5,0,0,1-.669.223,22.857,22.857,0,0,1-6.479-3.3,1.137,1.137,0,0,1-.4-.73,23.564,23.564,0,0,1,3.939-15.276,1.736,1.736,0,0,1,.811-.693c1.636-.545,3.292-1.025,4.938-1.539.356-.111.614-.017.712.327.266.934.823,1.075,1.762,1,1.572-.116,3.164.038,4.746.045a.755.755,0,0,0,.548-.342c.7-1.288.311-1.257,1.9-.844,1.428.372,2.818.9,4.212,1.387a1.384,1.384,0,0,1,.631.519A23.712,23.712,0,0,1,341.155,649.011Z" transform="translate(-304.933 -621.931)" fill="#727272"/>
        </g>
        <path id="Path_2049" data-name="Path 2049" d="M352.465,621.931a22.025,22.025,0,1,0,22.023,22.026A22.025,22.025,0,0,0,352.465,621.931ZM363.2,634.812c-.138,2.215-4.248,18.762-4.248,18.762a1.328,1.328,0,0,1-1.129,1,1.613,1.613,0,0,1-1.176-.453c-.93-.8-3.081-2.327-5.08-3.707-.6.508-1.81,1.551-3.057,2.8-1.767,1.767-1.539,0-1.539,0l.543-5.766.012.007a.492.492,0,0,1,.066-.107s10.409-9.254,10.687-10.224c.021-.076-.059-.114-.168-.08-.693.254-12.677,7.822-14,8.659a.651.651,0,0,1-.294.017L338,643.821s-.695-.282-.472-.92c.047-.133.14-.244.417-.439,1.288-.9,23.85-9.005,23.85-9.005a1.92,1.92,0,0,1,1.013-.074.552.552,0,0,1,.375.408,1.913,1.913,0,0,1,.05.514C363.228,634.456,363.211,634.593,363.2,634.812Z" transform="translate(-88.446 -621.931)" fill="#727272"/>
      </g>
    </g>
  </g>
</svg>
